<?xml version="1.0" encoding="UTF-8" standalone="no"?>
<!-- Created with Inkscape (http://www.inkscape.org/) -->

<svg
   width="40"
   height="40"
   viewBox="0 0 10.583333 10.583333"
   version="1.1"
   id="svg240"
   xmlns="http://www.w3.org/2000/svg"
   xmlns:svg="http://www.w3.org/2000/svg">
  <defs
     id="defs237" />
  <g
     id="layer1">
    <path
       id="rect415"
       style="fill:#0055ff;stroke-width:0.264583;fill-opacity:1"
       d="M 0 0 L 0 10.583333 L 10.583333 10.583333 L 10.583333 0 L 0 0 z M 3.4395833 1.8520833 A 1.0583333 1.0583333 0 0 1 4.4979167 2.9104167 A 1.0583333 1.0583333 0 0 1 3.4395833 3.96875 A 1.0583333 1.0583333 0 0 1 2.38125 2.9104167 A 1.0583333 1.0583333 0 0 1 3.4395833 1.8520833 z M 7.14375 1.8520833 A 1.0583333 1.0583333 0 0 1 8.2020833 2.9104167 A 1.0583333 1.0583333 0 0 1 7.14375 3.96875 A 1.0583333 1.0583333 0 0 1 6.0854167 2.9104167 A 1.0583333 1.0583333 0 0 1 7.14375 1.8520833 z M 3.4395833 4.2333333 A 1.0583333 1.0583333 0 0 1 4.4979167 5.2916667 A 1.0583333 1.0583333 0 0 1 3.4395833 6.35 A 1.0583333 1.0583333 0 0 1 2.38125 5.2916667 A 1.0583333 1.0583333 0 0 1 3.4395833 4.2333333 z M 7.14375 4.2333333 A 1.0583333 1.0583333 0 0 1 8.2020833 5.2916667 A 1.0583333 1.0583333 0 0 1 7.14375 6.35 A 1.0583333 1.0583333 0 0 1 6.0854167 5.2916667 A 1.0583333 1.0583333 0 0 1 7.14375 4.2333333 z M 3.4395833 6.6145833 A 1.0583333 1.0583333 0 0 1 4.4979167 7.6729167 A 1.0583333 1.0583333 0 0 1 3.4395833 8.73125 A 1.0583333 1.0583333 0 0 1 2.38125 7.6729167 A 1.0583333 1.0583333 0 0 1 3.4395833 6.6145833 z M 7.14375 6.6145833 A 1.0583333 1.0583333 0 0 1 8.2020833 7.6729167 A 1.0583333 1.0583333 0 0 1 7.14375 8.73125 A 1.0583333 1.0583333 0 0 1 6.0854167 7.6729167 A 1.0583333 1.0583333 0 0 1 7.14375 6.6145833 z " />
  </g>
</svg>
