<?xml version="1.0" encoding="UTF-8" standalone="no"?>
<!-- Created with Inkscape (http://www.inkscape.org/) -->

<svg
   width="128"
   height="128"
   viewBox="0 0 128 128"
   version="1.1"
   id="svg5"
   xml:space="preserve"
   xmlns:xlink="http://www.w3.org/1999/xlink"
   xmlns="http://www.w3.org/2000/svg"
   xmlns:svg="http://www.w3.org/2000/svg"><defs
     id="defs2"><linearGradient
       id="linearGradient447"><stop
         style="stop-color:#0055ff;stop-opacity:1;"
         offset="0"
         id="stop443" /><stop
         style="stop-color:#0046cc;stop-opacity:1;"
         offset="1"
         id="stop445" /></linearGradient><clipPath
       id="6e9067cc-f0d6-40c6-b994-868f456b6d73"><rect
         x="0"
         y="0"
         width="3.2"
         height="16"
         id="rect6637" /><rect
         x="0"
         y="10"
         width="16"
         height="6"
         id="rect6639" /><rect
         x="5"
         y="0"
         width="11"
         height="16"
         id="rect6641" /></clipPath><clipPath
       id="9de010af-6433-4b9a-892a-10e296e5c7b2"><rect
         x="0"
         y="2"
         width="16"
         height="8"
         id="rect6644" /></clipPath><linearGradient
       xlink:href="#linearGradient447"
       id="linearGradient449"
       x1="0"
       y1="0"
       x2="128"
       y2="128"
       gradientUnits="userSpaceOnUse" /></defs><rect
     style="fill:#003399;fill-opacity:1;stroke-width:2.26667;stroke-miterlimit:2"
     id="rect3973"
     width="68"
     height="68"
     x="60"
     y="60" /><circle
     style="fill:url(#linearGradient449);fill-opacity:1;stroke-width:2.13333;stroke-miterlimit:2"
     id="path183"
     cx="64"
     cy="64"
     r="64" /><g
     id="g6665"
     transform="matrix(0.81593194,0,0,0.81593194,111.18407,113.36814)"
     style="stroke:#eeeeec;stroke-opacity:1"><path
       fill="none"
       stroke="#000000"
       stroke-width="2"
       clip-path="url(#6e9067cc-f0d6-40c6-b994-868f456b6d73)"
       d="M 2,2 V 12 H 13 L 4,3"
       id="path6649"
       style="stroke:#eeeeec;stroke-opacity:1" /><path
       fill="none"
       stroke="#000000"
       stroke-width="2"
       clip-path="url(#9de010af-6433-4b9a-892a-10e296e5c7b2)"
       d="M 3,13 15,1"
       id="path6651"
       style="stroke:#eeeeec;stroke-opacity:1" /></g><path
     id="path1092"
     style="fill:#000000;fill-opacity:0.39939025;stroke-width:1.99999"
     d="m 26,26 v 80 h 80 V 26 Z m 26.000001,14 a 8,8 0 0 1 8,8.000001 8,8 0 0 1 -8,8 A 8,8 0 0 1 44,48.000001 8,8 0 0 1 52.000001,40 Z m 28,0 a 8,8 0 0 1 8.000001,8.000001 8,8 0 0 1 -8.000001,8 8,8 0 0 1 -8,-8 8,8 0 0 1 8,-8.000001 z m -28,18.000001 a 8,8 0 0 1 8,8 8,8 0 0 1 -8,8 8,8 0 0 1 -8.000001,-8 8,8 0 0 1 8.000001,-8 z m 28,0 a 8,8 0 0 1 8.000001,8 8,8 0 0 1 -8.000001,8 8,8 0 0 1 -8,-8 8,8 0 0 1 8,-8 z m -28,18 a 8,8 0 0 1 8,8 8,8 0 0 1 -8,8.000001 A 8,8 0 0 1 44,84.000001 a 8,8 0 0 1 8.000001,-8 z m 28,0 a 8,8 0 0 1 8.000001,8 8,8 0 0 1 -8.000001,8.000001 8,8 0 0 1 -8,-8.000001 8,8 0 0 1 8,-8 z" /><path
     id="rect415"
     style="fill:#eeeeec;fill-opacity:1;stroke-width:1.99999"
     d="m 24,24 v 80 h 80 V 24 Z m 26.000001,14 a 8,8 0 0 1 8,8.000001 8,8 0 0 1 -8,8 A 8,8 0 0 1 42,46.000001 8,8 0 0 1 50.000001,38 Z m 28,0 a 8,8 0 0 1 8.000001,8.000001 8,8 0 0 1 -8.000001,8 8,8 0 0 1 -8,-8 8,8 0 0 1 8,-8.000001 z m -28,18.000001 a 8,8 0 0 1 8,8 8,8 0 0 1 -8,8 8,8 0 0 1 -8.000001,-8 8,8 0 0 1 8.000001,-8 z m 28,0 a 8,8 0 0 1 8.000001,8 8,8 0 0 1 -8.000001,8 8,8 0 0 1 -8,-8 8,8 0 0 1 8,-8 z m -28,18 a 8,8 0 0 1 8,8 8,8 0 0 1 -8,8.000001 A 8,8 0 0 1 42,82.000001 a 8,8 0 0 1 8.000001,-8 z m 28,0 a 8,8 0 0 1 8.000001,8 8,8 0 0 1 -8.000001,8.000001 8,8 0 0 1 -8,-8.000001 8,8 0 0 1 8,-8 z" /></svg>
